<svg width="19" height="14" viewBox="0 0 19 14" fill="none" xmlns="http://www.w3.org/2000/svg">
<path d="M0.996851 12.1573L0.99641 12.1569C0.679002 11.8399 0.500453 11.4098 0.5 10.9612V5.11529C0.5 5.05409 0.524313 4.99539 0.567591 4.95211C0.610869 4.90883 0.669566 4.88452 0.730769 4.88452C0.791973 4.88452 0.85067 4.90883 0.893947 4.95211C0.937225 4.99539 0.961538 5.05409 0.961538 5.11529V10.9614C0.961538 11.2879 1.09121 11.6009 1.32202 11.8317C1.55284 12.0625 1.86589 12.1922 2.19231 12.1922H16.8077C17.1341 12.1922 17.4472 12.0625 17.678 11.8317C17.9088 11.6009 18.0385 11.2879 18.0385 10.9614V5.11529C18.0385 5.05408 18.0628 4.99539 18.1061 4.95211C18.1493 4.90884 18.208 4.88452 18.2692 4.88452C18.3304 4.88452 18.3891 4.90883 18.4324 4.95211C18.4757 4.99539 18.5 5.05409 18.5 5.11529V10.961C18.4996 11.4097 18.3211 11.8398 18.0036 12.1569L18.0032 12.1573C17.6861 12.4748 17.2559 12.6534 16.8073 12.6538H2.19275C1.74407 12.6534 1.31392 12.4748 0.996851 12.1573Z" fill="#EA7F1B" stroke="#EA7F1B"/>
<path d="M18.0031 0.99641L18.0033 0.996538C18.0458 1.03911 18.0861 1.0838 18.1239 1.13042L17.0901 0.967625C16.9855 0.951148 16.8791 0.94912 16.7741 0.961538H2.22591C2.12087 0.94912 2.01454 0.951149 1.90991 0.967625L0.876131 1.13042C0.913927 1.0838 0.95417 1.03911 0.996721 0.996538L0.99685 0.99641C1.31386 0.679002 1.74393 0.500453 2.19253 0.5H16.8075C17.2561 0.500453 17.6861 0.679002 18.0031 0.99641ZM17.3133 1.86079L18.1818 1.20603C18.2411 1.2879 18.2931 1.37493 18.3374 1.46618C18.3601 1.51402 18.3656 1.56822 18.3531 1.61967C18.3405 1.67125 18.3105 1.71691 18.2682 1.74896C18.2681 1.74905 18.2679 1.74915 18.2678 1.74924L9.63846 8.22308C9.63844 8.22309 9.63842 8.2231 9.63841 8.22312C9.59847 8.25305 9.5499 8.26923 9.5 8.26923C9.45009 8.26923 9.40153 8.25305 9.36159 8.22312C9.36157 8.2231 9.36155 8.22309 9.36154 8.22308L0.732194 1.74924C0.732074 1.74915 0.731954 1.74906 0.731835 1.74897C0.689507 1.71692 0.659521 1.67126 0.646939 1.61967C0.634391 1.56823 0.63992 1.51404 0.662581 1.4662C0.706841 1.37495 0.758934 1.28791 0.818187 1.20603L1.6867 1.86079L9.19901 7.52425L9.5 7.75117L9.80099 7.52425L17.3133 1.86079Z" fill="#EA7F1B" stroke="#EA7F1B"/>
</svg>
