<svg width="18" height="18" viewBox="0 0 18 18" fill="none" xmlns="http://www.w3.org/2000/svg">
<path d="M5.40476 7.86605L5.40475 7.86604C5.28764 7.74893 5.2222 7.59065 5.2222 7.42554C5.2222 7.26054 5.28756 7.10165 5.40476 6.98502L5.40476 7.86605ZM5.40476 7.86605L7.79498 10.2557C7.91645 10.3772 8.07603 10.4382 8.23548 10.4382C8.39478 10.4382 8.55441 10.3778 8.67599 10.2557C8.91958 10.0121 8.91958 9.61827 8.67599 9.37468L6.72683 7.42552L7.68002 6.47122C8.58205 5.56919 8.58205 4.10202 7.68002 3.19999L6.08692 1.60689L6.0869 1.60687M5.40476 7.86605L6.0869 1.60687M6.0869 1.60687C5.22432 0.744876 3.73152 0.730048 2.8537 1.56955L6.0869 1.60687ZM1.67491 6.75604C2.01698 6.71804 2.2631 6.41021 2.22509 6.06817C1.96573 3.7339 3.5458 2.60536 3.6068 2.56293L3.57824 2.52188L3.6067 2.56299C3.63864 2.54089 3.66909 2.51608 3.69669 2.48847C4.09947 2.08569 4.80362 2.08619 5.20647 2.48847L1.03673 6.20034L0.98704 6.20586C1.02503 6.5478 1.33561 6.79521 1.67491 6.75604ZM1.67491 6.75604L1.66939 6.70635L1.67514 6.75602C1.67506 6.75603 1.67499 6.75604 1.67491 6.75604ZM6.79957 5.59078L5.40485 6.98494L5.2065 2.4885L6.79957 4.08157C7.21557 4.49757 7.21557 5.17478 6.79958 5.59077C6.79958 5.59078 6.79958 5.59078 6.79957 5.59078Z" fill="#EA7F1B" stroke="#EA7F1B" stroke-width="0.1"/>
<path d="M2.13301 8.10784L2.13308 8.1078C2.44016 7.95021 2.81464 8.07108 2.97225 8.37633L2.97227 8.37638C3.58579 9.5675 4.5655 10.8419 5.88748 12.1633L5.88749 12.1633C6.13108 12.4069 6.13108 12.8007 5.88749 13.0443C5.76541 13.1664 5.60639 13.2269 5.44698 13.2269C5.28753 13.2269 5.12795 13.1658 5.00647 13.0443C3.59603 11.6339 2.53857 10.2556 1.86448 8.9471L2.13301 8.10784ZM2.13301 8.10784C1.8271 8.26547 1.70684 8.64117 1.86447 8.94709L2.13301 8.10784Z" fill="#EA7F1B" stroke="#EA7F1B" stroke-width="0.1"/>
<path d="M5.86171 12.1368L5.86172 12.1368C8.46038 14.7361 10.8753 15.9952 12.8611 15.8106C13.7353 15.728 14.384 15.3822 14.8153 15.0556C15.031 14.8922 15.1922 14.7337 15.2998 14.6154C15.3536 14.5563 15.394 14.5073 15.4211 14.4729C15.4484 14.4381 15.4618 14.4187 15.4617 14.4188L15.4621 14.4182C15.4838 14.3859 15.5088 14.3552 15.5372 14.3274C15.7385 14.1265 15.8496 13.858 15.8496 13.5733C15.8496 13.2886 15.7385 13.0205 15.537 12.819L15.537 12.819L13.9439 11.2253C13.7424 11.0239 13.4744 10.9133 13.1884 10.9133C12.9031 10.9133 12.6356 11.0239 12.4347 11.2253L12.4347 11.2253L11.0393 12.6196C10.7957 12.8632 10.4019 12.8632 10.1583 12.6196L7.7692 10.2305C7.52561 9.98691 7.52561 9.59308 7.7692 9.34949C8.01279 9.1059 8.40662 9.1059 8.65021 9.34949L10.5988 11.2981L11.5531 10.3443L5.86171 12.1368ZM5.86171 12.1368C5.61812 11.8933 5.22429 11.8933 4.9807 12.1368C4.73711 12.3804 4.73711 12.7743 4.9807 13.0179L5.86171 12.1368ZM14.8249 10.3437L14.8249 10.3438L16.418 11.938C16.8549 12.3743 17.0957 12.9555 17.0957 13.5733C17.0957 14.1731 16.8686 14.7387 16.4553 15.1706C16.2385 15.4629 15.1028 16.8503 12.9783 17.0511C12.9783 17.0511 12.9783 17.0511 12.9782 17.0511L12.9735 17.0014C12.8033 17.018 12.6303 17.0254 12.4566 17.0254L14.8249 10.3437ZM14.8249 10.3437C14.388 9.90744 13.8068 9.66665 13.1884 9.66665C12.57 9.66665 11.9894 9.90743 11.5531 10.3443L14.8249 10.3437Z" fill="#EA7F1B" stroke="#EA7F1B" stroke-width="0.1"/>
</svg>
